<svg xmlns="http://www.w3.org/2000/svg" width="91.138" height="91.138" viewBox="0 0 91.138 91.138">
  <g id="Group_77251" data-name="Group 77251" transform="translate(-69 -683)">
    <g id="undraw_profile_pic_re_iwgo" transform="translate(69 683)">
      <g id="Group_77250" data-name="Group 77250" transform="translate(0 0)">
        <g id="Group_76945" data-name="Group 76945" transform="translate(11.185 19.87)">
          <path id="Path_9168" data-name="Path 9168" d="M226.234,292.794l2.169-13.556-14.64-5.965-2.169,20.605Z" transform="translate(-186.53 -246.329)" fill="#a0616a"/>
          <path id="Path_9169" data-name="Path 9169" d="M158.376,380.494q-1.885.919-3.838,1.657a45.42,45.42,0,0,1-8.038,2.222,46.365,46.365,0,0,1-19.25-.6c-1.405-.345-2.823-.766-4.216-1.257l-.441-.158a45.357,45.357,0,0,1-5.064-2.193c-.22-.11-.441-.223-.661-.343-.244-.124-.486-.256-.73-.393-.311-.17-.62-.347-.929-.527-1.034-.6-2.052-1.245-3.024-1.918l-.065-.043c-.057-.041-.115-.079-.17-.12.036-.189.069-.362.1-.515.12-.6.2-.931.2-.931l6.555-13.542,1.827-3.773.891-.366,6.728-2.765H144.7l5.188,2.145s.026.1.079.287a171.358,171.358,0,0,0,8.215,22.7c.065.144.132.29.2.436h0Z" transform="translate(-103.958 -313.995)" fill="#6c63ff"/>
          <circle id="Ellipse_168" data-name="Ellipse 168" cx="14.93" cy="14.93" r="14.93" transform="translate(21.075 7.407)" fill="#a0616a"/>
          <path id="Path_9170" data-name="Path 9170" d="M82.882,370.32l-.026.128L78.3,392.09l-.039.188-.063.3c-.245-.125-.487-.257-.73-.392-.312-.171-.62-.348-.93-.528-1.033-.6-2.051-1.245-3.024-1.917l-.065-.045c-.057-.039-.115-.079-.17-.118q-1.115-.779-2.176-1.619a.084.084,0,0,1-.014-.012,45.814,45.814,0,0,1-3.642-3.275q-1.125-1.126-2.162-2.316l.1-.439.01-.045.13-.559a12.753,12.753,0,0,1,10.011-9.59l6.558-1.256Z" transform="translate(-65.29 -326.75)" fill="#6c63ff"/>
          <path id="Path_9171" data-name="Path 9171" d="M348.7,385.319a45.886,45.886,0,0,1-6.189,4.442c-.213.129-.431.256-.649.383q-1.393.8-2.832,1.5-1.886.919-3.838,1.657l-.1-.474-5.14-24.443.666.127,6.67,1.279a12.752,12.752,0,0,1,10.01,9.591l1.276,5.4.127.531h0Z" transform="translate(-284.61 -325.149)" fill="#6c63ff"/>
          <path id="Path_9172" data-name="Path 9172" d="M177.088,142.318c-.388,1.446-2.339,7.908-7.336,9.268-.982.268-3.323.577-2.7,0l.414-.388c5.423-5.1,7.635-8.217,6.625-15.136-.642-4.406-7.949-8.406-12.06-8.8a6.872,6.872,0,0,0-5.406,1.93c-2.411,2.49-2.014,10.133-3.35,14.622a5.76,5.76,0,0,1-1.532,2.77c-.431.369-.706-.1-.91-.869-.433-1.633-.546-4.623-1.161-3.778-1.779,2.449-.084,5.7.429,6.948.105.256.213.5.321.737v0c.062.134.127.268.189.4v0c1.709,3.486,3.764,4.733,5.574,6.9a13.491,13.491,0,0,1,1.985,3.16,14.1,14.1,0,0,1,.912,2.708,19.1,19.1,0,0,1-.527,9.651c-.7,2.3-1.894,6.261-5.406,8.495-4.41,2.806-8.435.333-10.36,3-.024.031-.046.062-.067.093a3.284,3.284,0,0,0-.192.323,45.356,45.356,0,0,1-5.064-2.193c-.22-.11-.441-.223-.661-.343-.244-.124-.486-.256-.73-.393-.01-.187-.019-.373-.026-.563a39.306,39.306,0,0,1,.879-10.35,56.112,56.112,0,0,1,1.815-6.682,21.83,21.83,0,0,1,1.966-4.121,18.678,18.678,0,0,1,2.4-3.1c2.093-2.186,3.953-3.1,4.247-5.406.421-3.294-3.01-4.286-4.247-9.268-.845-3.407-1.729-8.317-.871-11.626.809-3.127,1.513-5.84,3.862-8.5.565-.637,5.2-5.066,10.575-5.794,2.476-.333,4.683,2.837,7.676,3.52,3.441.783,5.411,1.231,7.336,2.7,3.254,2.485,4.171,6.2,5.021,9.654.666,2.7,1.528,6.194.385,10.427h0Z" transform="translate(-123.891 -115.99)" fill="#2f2e41"/>
        </g>
      </g>
      <path id="Path_9173" data-name="Path 9173" d="M77.791,13.347A45.569,45.569,0,0,0,0,45.569,45.223,45.223,0,0,0,11.185,75.475q1.036,1.19,2.162,2.316a45.809,45.809,0,0,0,3.642,3.275.085.085,0,0,0,.014.012A45.573,45.573,0,0,0,91.138,45.569,45.271,45.271,0,0,0,77.791,13.347ZM75.2,79.711a45.243,45.243,0,0,1-9.689,6.446q-1.848.912-3.786,1.657A45.088,45.088,0,0,1,24.16,85.4q-.409-.221-.812-.449a44.944,44.944,0,0,1-4.1-2.623A45.231,45.231,0,1,1,75.2,79.711Z" transform="translate(0 0)" fill="#3f3d56"/>
    </g>
  </g>
</svg>
