<svg xmlns="http://www.w3.org/2000/svg" width="20.253" height="20.254" viewBox="0 0 20.253 20.254">
  <path id="Path_10467" data-name="Path 10467" d="M19.336,10.212V7.365a1.837,1.837,0,0,0-1.695-1.826L15,.921A1.822,1.822,0,0,0,12.5.248L3.436,5.524H1.844A1.843,1.843,0,0,0,0,7.365V18.413a1.843,1.843,0,0,0,1.841,1.841h15.65a1.843,1.843,0,0,0,1.841-1.841V15.566a1.379,1.379,0,0,0,.921-1.3V11.508a1.379,1.379,0,0,0-.921-1.3ZM16.571,5.524H12.559l3.009-1.752Zm-1.46-2.551L10.73,5.524H8.912L14.657,2.18Zm-2.149-1.93a.89.89,0,0,1,.684-.092.9.9,0,0,1,.553.427v0L7.083,5.524H5.266l7.7-4.48Zm5.454,17.369a.922.922,0,0,1-.921.921H1.844a.922.922,0,0,1-.921-.921V7.365a.922.922,0,0,1,.921-.921h15.65a.922.922,0,0,1,.921.921v2.762H15.653a2.762,2.762,0,0,0,0,5.524h2.762Zm.921-4.143a.461.461,0,0,1-.46.46H15.653a1.841,1.841,0,1,1,0-3.682h3.222a.461.461,0,0,1,.46.46V14.27Z" transform="translate(-0.003 0)" fill="#fff"/>
</svg>
